<svg width="21" height="70" viewBox="0 0 21 70" fill="none" xmlns="http://www.w3.org/2000/svg">
<path d="M5.69434 29.5615C5.69434 28.764 6.03613 28.1146 6.71973 27.6133C7.42611 27.0892 8.34896 26.8271 9.48828 26.8271C11.5391 26.8271 12.6328 27.5335 12.7695 28.9463C12.8607 29.9261 12.9518 31.0312 13.043 32.2617C13.1569 33.4922 13.2594 34.8024 13.3506 36.1924C13.4645 37.5596 13.5557 38.9837 13.624 40.4648C13.7152 41.9232 13.7949 43.3701 13.8633 44.8057C13.9316 46.2184 13.9886 47.5856 14.0342 48.9072C14.0798 50.2288 14.1025 51.4365 14.1025 52.5303C14.1025 53.6696 13.6924 54.5241 12.8721 55.0938C12.0745 55.6634 10.901 55.9482 9.35156 55.9482C8.64518 55.9482 8.08691 55.7773 7.67676 55.4355C7.28939 55.1165 7.0957 54.638 7.0957 54C7.0957 50.8555 7.01595 47.916 6.85645 45.1816C6.71973 42.4245 6.56022 39.9749 6.37793 37.833C6.21842 35.6911 6.05892 33.9137 5.89941 32.501C5.7627 31.0654 5.69434 30.0856 5.69434 29.5615Z" fill="#584C52"/>
<path d="M8.49707 18.8633C9.08952 19.0456 9.71615 19.1367 10.377 19.1367C11.6074 19.1367 12.5758 18.8633 13.2822 18.3164C14.0114 17.7467 14.376 16.972 14.376 15.9922C14.376 15.4681 14.2507 14.9668 14 14.4883C13.7493 13.987 13.4076 13.554 12.9746 13.1895C12.5645 12.8249 12.0859 12.54 11.5391 12.335C10.9922 12.1071 10.4225 11.9932 9.83008 11.9932C8.55404 11.9932 7.52865 12.2894 6.75391 12.8818C6.00195 13.4743 5.62598 14.249 5.62598 15.2061C5.62598 15.7757 5.7513 16.2998 6.00195 16.7783C6.2526 17.2568 6.58301 17.6784 6.99316 18.043C7.42611 18.3848 7.92741 18.6582 8.49707 18.8633Z" fill="#F26F8E"/>
</svg>
