<svg width="8" height="36" viewBox="0 0 8 36" fill="none" xmlns="http://www.w3.org/2000/svg">
<path d="M4.16797 6C3.69596 6 3.24837 5.9349 2.8252 5.80469C2.41829 5.6582 2.06022 5.46289 1.75098 5.21875C1.45801 4.95833 1.22201 4.65723 1.04297 4.31543C0.863932 3.97363 0.774414 3.59928 0.774414 3.19238C0.774414 2.50879 1.04297 1.9554 1.58008 1.53223C2.13346 1.10905 2.86589 0.897461 3.77734 0.897461C4.20052 0.897461 4.60742 0.978841 4.99805 1.1416C5.38867 1.28809 5.73047 1.49154 6.02344 1.75195C6.33268 2.01237 6.57682 2.32161 6.75586 2.67969C6.9349 3.02148 7.02441 3.37956 7.02441 3.75391C7.02441 4.45378 6.764 5.00716 6.24316 5.41406C5.73861 5.80469 5.04688 6 4.16797 6ZM1.06738 16.5439C1.06738 15.9743 1.31152 15.5104 1.7998 15.1523C2.30436 14.778 2.96354 14.5908 3.77734 14.5908C5.24219 14.5908 6.02344 15.0954 6.12109 16.1045C6.1862 16.8044 6.2513 17.5938 6.31641 18.4727C6.39779 19.3516 6.47103 20.2874 6.53613 21.2803C6.61751 22.2568 6.68262 23.2741 6.73145 24.332C6.79655 25.3737 6.85352 26.4072 6.90234 27.4326C6.95117 28.4417 6.99186 29.4183 7.02441 30.3623C7.05697 31.3063 7.07324 32.1689 7.07324 32.9502C7.07324 33.764 6.78027 34.3743 6.19434 34.7812C5.62467 35.1882 4.78646 35.3916 3.67969 35.3916C3.17513 35.3916 2.77637 35.2695 2.4834 35.0254C2.20671 34.7975 2.06836 34.4557 2.06836 34C2.06836 31.7539 2.01139 29.6543 1.89746 27.7012C1.7998 25.7318 1.68587 23.9821 1.55566 22.4521C1.44173 20.9222 1.3278 19.6527 1.21387 18.6436C1.11621 17.6182 1.06738 16.9183 1.06738 16.5439Z" fill="#584C52"/>
</svg>
