<svg width="36" height="70" viewBox="0 0 36 70" fill="none" xmlns="http://www.w3.org/2000/svg">
<path d="M3.29785 26.417C3.29785 26.0752 3.44596 25.7448 3.74219 25.4258C4.03841 25.084 4.42578 24.7878 4.9043 24.5371C5.38281 24.2637 5.91829 24.0472 6.51074 23.8877C7.12598 23.7054 7.74121 23.6143 8.35645 23.6143C8.69824 23.6143 8.98307 23.7054 9.21094 23.8877C9.46159 24.07 9.67806 24.4232 9.86035 24.9473C10.0426 25.4486 10.2021 26.1663 10.3389 27.1006C10.4984 28.012 10.6465 29.2083 10.7832 30.6895C10.8743 31.1452 10.9541 31.4984 11.0225 31.749C11.1136 31.9769 11.2275 32.0908 11.3643 32.0908C11.5693 32.0908 11.7744 31.7376 11.9795 31.0312C13.6429 26.2233 16.0469 23.8193 19.1914 23.8193C20.6497 23.8193 21.9714 24.2751 23.1562 25.1865C24.3639 26.098 25.4805 27.5905 26.5059 29.6641C27.554 31.7148 28.5452 34.4264 29.4795 37.7988C30.4137 41.1484 31.348 45.2842 32.2822 50.2061C32.3278 50.4567 32.362 50.6846 32.3848 50.8896C32.4076 51.0947 32.4189 51.2884 32.4189 51.4707C32.4189 51.9948 32.2936 52.4505 32.043 52.8379C31.8151 53.2025 31.5075 53.5101 31.1201 53.7607C30.7327 53.9886 30.2998 54.1595 29.8213 54.2734C29.3428 54.4102 28.8643 54.4785 28.3857 54.4785C27.4287 54.4785 26.7337 54.376 26.3008 54.1709C25.8906 53.9658 25.6286 53.5785 25.5146 53.0088C24.8538 49.5452 24.2044 46.4691 23.5664 43.7803C22.9512 41.0915 22.3359 38.8356 21.7207 37.0127C21.1283 35.167 20.5358 33.7656 19.9434 32.8086C19.3509 31.8516 18.7585 31.373 18.166 31.373C17.5736 31.373 17.0153 31.749 16.4912 32.501C15.9899 33.2301 15.5 34.3809 15.0215 35.9531C14.543 37.5254 14.0758 39.5192 13.6201 41.9346C13.1872 44.3499 12.7656 47.2324 12.3555 50.582C12.2415 51.4935 11.7858 52.2227 10.9883 52.7695C10.1908 53.3164 9.17676 53.5898 7.94629 53.5898C7.12598 53.5898 6.49935 53.4189 6.06641 53.0771C5.63346 52.7354 5.39421 52.2682 5.34863 51.6758C5.14355 46.9362 4.91569 43.0397 4.66504 39.9863C4.43717 36.9102 4.2207 34.4492 4.01562 32.6035C3.81055 30.735 3.63965 29.3451 3.50293 28.4336C3.36621 27.5221 3.29785 26.8499 3.29785 26.417Z" fill="#584C52"/>
<path fill-rule="evenodd" clip-rule="evenodd" d="M5.7239 12.3571C6.60274 11.7061 7.79014 11.97 8.37603 12.9465C8.79842 13.6504 9.56096 14.2413 10.2183 14.6947C11.3758 15.4929 12.2288 15.7501 13.6284 15.7501C14.7788 15.7501 16.183 15.2155 17.5168 14.4745C18.1674 14.1131 18.8416 13.5983 19.6073 12.7476C20.3541 11.9178 21.565 11.9178 22.3119 12.7476C23.0588 13.5774 23.0588 14.9229 22.3119 15.7527C21.2776 16.902 20.2725 17.6951 19.2274 18.2757C17.7178 19.1144 15.6718 20 13.6284 20C11.5561 20 9.99756 19.5444 8.20115 18.3055C7.54455 17.8527 6.12107 16.8498 5.19347 15.3039C4.60758 14.3274 4.84506 13.0081 5.7239 12.3571Z" fill="#F26F8E"/>
</svg>
